<svg width="1440" height="1050" viewBox="0 0 1440 1050" fill="none" xmlns="http://www.w3.org/2000/svg">
  <defs>
    <filter id="shadow" x="-20%" y="-20%" width="140%" height="140%">
      <feDropShadow dx="0" dy="20" stdDeviation="24" flood-color="#162321" flood-opacity="0.10"/>
    </filter>
    <linearGradient id="hero" x1="260" y1="88" x2="1330" y2="315" gradientUnits="userSpaceOnUse">
      <stop stop-color="#E6F3F0"/>
      <stop offset="0.68" stop-color="#FFFFFF"/>
    </linearGradient>
  </defs>

  <rect width="1440" height="1050" fill="#F5F7F6"/>
  <circle cx="118" cy="70" r="420" fill="#0F766E" opacity="0.12"/>

  <rect width="260" height="1050" fill="#FFFFFF"/>
  <line x1="260" y1="0" x2="260" y2="1050" stroke="#D9E2DF"/>

  <rect x="24" y="24" width="42" height="42" rx="8" fill="#0F766E"/>
  <text x="45" y="52" text-anchor="middle" font-family="Inter, Segoe UI, Arial" font-size="22" font-weight="900" fill="#FFFFFF">T</text>
  <text x="78" y="42" font-family="Inter, Segoe UI, Arial" font-size="17" font-weight="800" fill="#172321">Tubaron</text>
  <text x="78" y="62" font-family="Inter, Segoe UI, Arial" font-size="13" fill="#66736F">Central do Assinante</text>

  <rect x="24" y="112" width="212" height="45" rx="8" fill="#EDF4F2"/>
  <text x="48" y="140" font-family="Inter, Segoe UI, Arial" font-size="15" font-weight="800" fill="#172321">⌂  Central</text>
  <text x="48" y="196" font-family="Inter, Segoe UI, Arial" font-size="15" font-weight="700" fill="#66736F">▣  Faturas</text>
  <text x="48" y="244" font-family="Inter, Segoe UI, Arial" font-size="15" font-weight="700" fill="#66736F">☏  Atendimento</text>
  <text x="48" y="292" font-family="Inter, Segoe UI, Arial" font-size="15" font-weight="700" fill="#66736F">✦  Assistente</text>

  <text x="302" y="42" font-family="Inter, Segoe UI, Arial" font-size="14" fill="#66736F">Ola, Marina</text>
  <text x="302" y="66" font-family="Inter, Segoe UI, Arial" font-size="18" font-weight="800" fill="#172321">Sua central inteligente esta pronta.</text>
  <rect x="1282" y="24" width="44" height="44" rx="8" fill="#FFFFFF" stroke="#D9E2DF"/>
  <text x="1304" y="53" text-anchor="middle" font-family="Inter, Segoe UI, Arial" font-size="18" fill="#66736F">☾</text>
  <rect x="1336" y="24" width="44" height="44" rx="8" fill="#FFFFFF" stroke="#D9E2DF"/>
  <text x="1358" y="53" text-anchor="middle" font-family="Inter, Segoe UI, Arial" font-size="18" fill="#66736F">⇥</text>

  <rect x="302" y="96" width="1036" height="250" rx="8" fill="url(#hero)" stroke="#B9D8D2" filter="url(#shadow)"/>
  <text x="342" y="139" font-family="Inter, Segoe UI, Arial" font-size="12" font-weight="900" fill="#66736F">CENTRAL DO ASSINANTE INTELIGENTE</text>
  <text x="342" y="204" font-family="Inter, Segoe UI, Arial" font-size="54" font-weight="900" fill="#172321">O que voce precisa</text>
  <text x="342" y="262" font-family="Inter, Segoe UI, Arial" font-size="54" font-weight="900" fill="#172321">resolver hoje?</text>
  <text x="342" y="306" font-family="Inter, Segoe UI, Arial" font-size="17" fill="#66736F">Conta, faturas, internet e atendimento em um so lugar, com diagnostico antes de abrir chamado.</text>

  <rect x="1040" y="132" width="250" height="178" rx="8" fill="#EDF4F2" stroke="#D9E2DF"/>
  <text x="1062" y="184" font-family="Inter, Segoe UI, Arial" font-size="34" font-weight="900" fill="#0F766E">Online</text>
  <text x="1062" y="214" font-family="Inter, Segoe UI, Arial" font-size="16" font-weight="700" fill="#172321">Fibra 700 Mega</text>
  <text x="1062" y="242" font-family="Inter, Segoe UI, Arial" font-size="14" fill="#66736F">Sinal -20.4 dBm</text>
  <rect x="1062" y="262" width="56" height="28" rx="14" fill="#DDF7EC"/>
  <text x="1090" y="281" text-anchor="middle" font-family="Inter, Segoe UI, Arial" font-size="12" font-weight="900" fill="#059669">Ativo</text>

  <rect x="342" y="318" width="315" height="34" rx="17" fill="#EDF4F2" stroke="#D9E2DF"/>
  <text x="360" y="340" font-family="Inter, Segoe UI, Arial" font-size="13" font-weight="800" fill="#172321">✦ Proximo passo: conferir fatura aberta</text>
  <rect x="667" y="318" width="230" height="34" rx="17" fill="#EDF4F2" stroke="#D9E2DF"/>
  <text x="685" y="340" font-family="Inter, Segoe UI, Arial" font-size="13" font-weight="800" fill="#172321">✓ Dados protegidos no backend</text>

  <g filter="url(#shadow)">
    <rect x="302" y="374" width="247" height="96" rx="8" fill="#FFFFFF" stroke="#D9E2DF"/>
    <rect x="322" y="401" width="42" height="42" rx="8" fill="#E1F1EE"/>
    <text x="343" y="428" text-anchor="middle" font-family="Inter, Segoe UI, Arial" font-size="20" fill="#0F766E">⌁</text>
    <text x="378" y="405" font-family="Inter, Segoe UI, Arial" font-size="13" fill="#66736F">Internet</text>
    <text x="378" y="430" font-family="Inter, Segoe UI, Arial" font-size="21" font-weight="900" fill="#172321">Online</text>
    <text x="378" y="452" font-family="Inter, Segoe UI, Arial" font-size="12" fill="#66736F">Sinal -20.4 dBm</text>

    <rect x="565" y="374" width="247" height="96" rx="8" fill="#FFFFFF" stroke="#D9E2DF"/>
    <rect x="585" y="401" width="42" height="42" rx="8" fill="#E1F1EE"/>
    <text x="606" y="428" text-anchor="middle" font-family="Inter, Segoe UI, Arial" font-size="20" fill="#0F766E">↯</text>
    <text x="641" y="405" font-family="Inter, Segoe UI, Arial" font-size="13" fill="#66736F">Consumo</text>
    <text x="641" y="430" font-family="Inter, Segoe UI, Arial" font-size="21" font-weight="900" fill="#172321">486 GB</text>
    <text x="641" y="452" font-family="Inter, Segoe UI, Arial" font-size="12" fill="#66736F">Ciclo atual</text>

    <rect x="828" y="374" width="247" height="96" rx="8" fill="#FFFFFF" stroke="#D9E2DF"/>
    <rect x="848" y="401" width="42" height="42" rx="8" fill="#E1F1EE"/>
    <text x="869" y="428" text-anchor="middle" font-family="Inter, Segoe UI, Arial" font-size="20" fill="#0F766E">◷</text>
    <text x="904" y="405" font-family="Inter, Segoe UI, Arial" font-size="13" fill="#66736F">Vencimento</text>
    <text x="904" y="430" font-family="Inter, Segoe UI, Arial" font-size="21" font-weight="900" fill="#172321">2026-07-10</text>
    <text x="904" y="452" font-family="Inter, Segoe UI, Arial" font-size="12" fill="#66736F">R$ 129.90</text>

    <rect x="1091" y="374" width="247" height="96" rx="8" fill="#FFFFFF" stroke="#D9E2DF"/>
    <rect x="1111" y="401" width="42" height="42" rx="8" fill="#E1F1EE"/>
    <text x="1132" y="428" text-anchor="middle" font-family="Inter, Segoe UI, Arial" font-size="20" fill="#0F766E">▤</text>
    <text x="1167" y="405" font-family="Inter, Segoe UI, Arial" font-size="13" fill="#66736F">Faturas</text>
    <text x="1167" y="430" font-family="Inter, Segoe UI, Arial" font-size="21" font-weight="900" fill="#172321">3</text>
    <text x="1167" y="452" font-family="Inter, Segoe UI, Arial" font-size="12" fill="#66736F">Historico disponivel</text>
  </g>

  <g filter="url(#shadow)">
    <rect x="302" y="498" width="247" height="190" rx="8" fill="#FFFFFF" stroke="#D9E2DF"/>
    <rect x="322" y="518" width="42" height="42" rx="8" fill="#E1F1EE"/>
    <text x="343" y="545" text-anchor="middle" font-family="Inter, Segoe UI, Arial" font-size="20" fill="#0F766E">▣</text>
    <text x="322" y="588" font-family="Inter, Segoe UI, Arial" font-size="12" font-weight="900" fill="#0F766E">FINANCEIRO</text>
    <text x="322" y="622" font-family="Inter, Segoe UI, Arial" font-size="20" font-weight="900" fill="#172321">Resolver fatura</text>
    <text x="322" y="652" font-family="Inter, Segoe UI, Arial" font-size="14" fill="#66736F">Segunda via, PIX, codigo</text>
    <text x="322" y="672" font-family="Inter, Segoe UI, Arial" font-size="14" fill="#66736F">de barras e cobranca.</text>

    <rect x="565" y="498" width="247" height="190" rx="8" fill="#FFFFFF" stroke="#D9E2DF"/>
    <rect x="585" y="518" width="42" height="42" rx="8" fill="#E1F1EE"/>
    <text x="606" y="545" text-anchor="middle" font-family="Inter, Segoe UI, Arial" font-size="20" fill="#0F766E">⌁</text>
    <text x="585" y="588" font-family="Inter, Segoe UI, Arial" font-size="12" font-weight="900" fill="#0F766E">DIAGNOSTICO</text>
    <text x="585" y="622" font-family="Inter, Segoe UI, Arial" font-size="20" font-weight="900" fill="#172321">Internet lenta</text>
    <text x="585" y="652" font-family="Inter, Segoe UI, Arial" font-size="14" fill="#66736F">Status da conexao, sinal</text>
    <text x="585" y="672" font-family="Inter, Segoe UI, Arial" font-size="14" fill="#66736F">e perguntas rapidas.</text>

    <rect x="828" y="498" width="247" height="190" rx="8" fill="#FFFFFF" stroke="#D9E2DF"/>
    <rect x="848" y="518" width="42" height="42" rx="8" fill="#E1F1EE"/>
    <text x="869" y="545" text-anchor="middle" font-family="Inter, Segoe UI, Arial" font-size="20" fill="#0F766E">▥</text>
    <text x="848" y="588" font-family="Inter, Segoe UI, Arial" font-size="12" font-weight="900" fill="#0F766E">CASA CONECTADA</text>
    <text x="848" y="622" font-family="Inter, Segoe UI, Arial" font-size="20" font-weight="900" fill="#172321">Wi-Fi e equipamento</text>
    <text x="848" y="652" font-family="Inter, Segoe UI, Arial" font-size="14" fill="#66736F">ONU, senha, reinicio</text>
    <text x="848" y="672" font-family="Inter, Segoe UI, Arial" font-size="14" fill="#66736F">e problema de fibra.</text>

    <rect x="1091" y="498" width="247" height="190" rx="8" fill="#FFFFFF" stroke="#D9E2DF"/>
    <rect x="1111" y="518" width="42" height="42" rx="8" fill="#E1F1EE"/>
    <text x="1132" y="545" text-anchor="middle" font-family="Inter, Segoe UI, Arial" font-size="20" fill="#0F766E">☏</text>
    <text x="1111" y="588" font-family="Inter, Segoe UI, Arial" font-size="12" font-weight="900" fill="#0F766E">WHATSAPP</text>
    <text x="1111" y="622" font-family="Inter, Segoe UI, Arial" font-size="20" font-weight="900" fill="#172321">Falar com a Tubaron</text>
    <text x="1111" y="652" font-family="Inter, Segoe UI, Arial" font-size="14" fill="#66736F">Resumo e contexto antes</text>
    <text x="1111" y="672" font-family="Inter, Segoe UI, Arial" font-size="14" fill="#66736F">de abrir atendimento.</text>
  </g>

  <rect x="302" y="716" width="1036" height="150" rx="8" fill="#FFFFFF" stroke="#D9E2DF" filter="url(#shadow)"/>
  <text x="330" y="754" font-family="Inter, Segoe UI, Arial" font-size="12" font-weight="900" fill="#66736F">ATENDIMENTO INTELIGENTE</text>
  <text x="330" y="795" font-family="Inter, Segoe UI, Arial" font-size="28" font-weight="900" fill="#172321">Antes de encaminhar, a central entende o contexto.</text>
  <text x="330" y="830" font-family="Inter, Segoe UI, Arial" font-size="15" fill="#66736F">Ela considera plano, fatura aberta, status da conexao e respostas do cliente.</text>
  <rect x="965" y="758" width="170" height="34" rx="17" fill="#EDF4F2" stroke="#D9E2DF"/>
  <text x="1050" y="780" text-anchor="middle" font-family="Inter, Segoe UI, Arial" font-size="13" font-weight="800" fill="#172321">1. Identifica</text>
  <rect x="965" y="800" width="170" height="34" rx="17" fill="#EDF4F2" stroke="#D9E2DF"/>
  <text x="1050" y="822" text-anchor="middle" font-family="Inter, Segoe UI, Arial" font-size="13" font-weight="800" fill="#172321">2. Pergunta certo</text>
  <rect x="1145" y="800" width="160" height="34" rx="17" fill="#EDF4F2" stroke="#D9E2DF"/>
  <text x="1225" y="822" text-anchor="middle" font-family="Inter, Segoe UI, Arial" font-size="13" font-weight="800" fill="#172321">3. Resume</text>

  <rect x="302" y="894" width="510" height="118" rx="8" fill="#FFFFFF" stroke="#D9E2DF" filter="url(#shadow)"/>
  <text x="330" y="932" font-family="Inter, Segoe UI, Arial" font-size="21" font-weight="900" fill="#172321">Avisos importantes</text>
  <rect x="330" y="952" width="430" height="40" rx="8" fill="#EDF4F2" stroke="#D9E2DF"/>
  <text x="348" y="977" font-family="Inter, Segoe UI, Arial" font-size="14" font-weight="800" fill="#172321">Pagamento via PIX disponivel</text>

  <rect x="828" y="894" width="510" height="118" rx="8" fill="#FFFFFF" stroke="#D9E2DF" filter="url(#shadow)"/>
  <text x="856" y="928" font-family="Inter, Segoe UI, Arial" font-size="12" font-weight="900" fill="#66736F">ASSISTENTE TUBARON</text>
  <text x="856" y="962" font-family="Inter, Segoe UI, Arial" font-size="21" font-weight="900" fill="#172321">Explique minha proxima fatura</text>
  <text x="856" y="990" font-family="Inter, Segoe UI, Arial" font-size="14" fill="#66736F">Pergunte sobre faturas, planos, Wi-Fi e testes basicos.</text>
</svg>
